<svg width="28" height="28" viewBox="0 0 28 28" fill="none" xmlns="http://www.w3.org/2000/svg">
<path d="M28 0H0V28H28V0Z" fill="#1F1F1F"/>
<path d="M18.6667 20H19.3403C19.9877 20 20.3114 20 20.4899 19.865C20.6453 19.7474 20.7415 19.5677 20.7531 19.3731C20.7665 19.1497 20.5869 18.8804 20.2278 18.3417L18.2209 15.3313C17.9241 14.8862 17.7757 14.6636 17.5887 14.586C17.4252 14.5182 17.2415 14.5182 17.078 14.586C16.8909 14.6636 16.7426 14.8862 16.4458 15.3313L15.9497 16.0755M18.6667 20L13.5437 12.6001C13.2491 12.1745 13.1017 11.9618 12.9177 11.887C12.7568 11.8215 12.5766 11.8215 12.4156 11.887C12.2316 11.9618 12.0843 12.1745 11.7897 12.6001L7.82548 18.3262C7.45013 18.8684 7.26245 19.1394 7.27314 19.3649C7.28244 19.5612 7.37792 19.7435 7.53406 19.8629C7.71335 20 8.04306 20 8.70248 20H18.6667ZM20 10C20 11.1046 19.1046 12 18 12C16.8954 12 16 11.1046 16 10C16 8.89543 16.8954 8 18 8C19.1046 8 20 8.89543 20 10Z" stroke="white" stroke-opacity="0.1" stroke-linecap="round" stroke-linejoin="round"/>
</svg>
